PathFileType  4	(X/Y/Z) C:\Users\antoi\Documents\MyRepositories\mobilecap\ResultsAnalysis
DataRate	CameraRate	NumFrames	NumMarkers	Units	OrigDataRate	OrigDataStartFrame	OrigNumFrames
100.0	100.0	4	51	mm	100.0	135	154
Frame#	Time	r_knee			r_shank_antsup			r_ankle			r_calc			r_5meta			r_toe			L_knee			L_shank_antsup			L_ankle			L_calc			L_5meta			L_toe			r_sh2			r_sh3			r_sh4			L_sh2			L_sh3			r_thigh1			r_thigh2			r_thigh3			r_thigh4			r_thigh5			L_thigh1			L_thigh2			L_thigh3			L_thigh4			r.ASIS			r.PSIS			L.ASIS			L.PSIS			C7			R_Shoulder			L_Shoulder			R_Sternum			L_Sternum			R_humerus			R_elbow_med			R_elbow_lat			R_forearm			R_wrist_radius			R_wrist_ulna			L_humerus			L_elbow_med			L_elbow_lat			L_forearm			L_wrist_radius			L_wrist_ulna			R_HJC			L_HJC			R_HJC_reg			L_HJC_reg			
		X1	Y1	Z1	X2	Y2	Z2	X3	Y3	Z3	X4	Y4	Z4	X5	Y5	Z5	X6	Y6	Z6	X7	Y7	Z7	X8	Y8	Z8	X9	Y9	Z9	X10	Y10	Z10	X11	Y11	Z11	X12	Y12	Z12	X13	Y13	Z13	X14	Y14	Z14	X15	Y15	Z15	X16	Y16	Z16	X17	Y17	Z17	X18	Y18	Z18	X19	Y19	Z19	X20	Y20	Z20	X21	Y21	Z21	X22	Y22	Z22	X23	Y23	Z23	X24	Y24	Z24	X25	Y25	Z25	X26	Y26	Z26	X27	Y27	Z27	X28	Y28	Z28	X29	Y29	Z29	X30	Y30	Z30	X31	Y31	Z31	X32	Y32	Z32	X33	Y33	Z33	X34	Y34	Z34	X35	Y35	Z35	X36	Y36	Z36	X37	Y37	Z37	X38	Y38	Z38	X39	Y39	Z39	X40	Y40	Z40	X41	Y41	Z41	X42	Y42	Z42	X43	Y43	Z43	X44	Y44	Z44	X45	Y45	Z45	X46	Y46	Z46	X47	Y47	Z47	X48	Y48	Z48	X49	Y49	Z49	X50	Y50	Z50	X51	Y51	Z51	

135	1.34000000	1338.06040	458.73973	-104.62340	1390.75402	410.68052	-110.58300	1412.03249	78.77300	-129.76215	1363.22135	49.17709	-177.68229	1525.85891	48.14167	-109.61283	1563.89398	83.74158	-159.98467	1065.46484	457.79452	-363.59761	1058.31491	366.87239	-346.93334	847.29480	132.32941	-362.07748	773.63516	119.75034	-328.38779	924.37865	43.02862	-374.68893	966.91367	44.03893	-312.75226	1402.09045	298.69712	-105.14354	1319.40407	403.31491	-81.02114	1321.72313	286.34288	-82.79155	1003.77258	418.57524	-397.10128	935.16287	317.63842	-410.01501	1296.59643	701.68901	-52.75605	1333.71723	595.97996	-71.85721	1281.60696	553.52594	-74.46916	1190.54574	662.92113	-65.66091	1240.78243	551.83853	-104.40451	1205.19939	700.24762	-415.20777	1163.69591	572.58421	-383.36704	1097.30274	729.99392	-424.06471	1054.21950	610.16803	-371.97803	1294.43289	888.83310	-128.49891	1084.77912	931.21148	-191.18627	1293.23155	878.48093	-350.23056	1088.96776	931.17204	-272.44999	1220.14654	1353.95050	-287.40886	1282.45156	1339.77088	-137.98988	1251.38904	1287.13568	-421.15697	1340.65751	1278.69317	-258.25587	1336.09668	1273.04876	-297.84231	1285.68459	1232.61488	-61.53526	1149.89810	1057.25096	-36.46866	1192.44044	1062.18449	14.83786	1244.36725	983.35210	29.58620	1264.67568	837.95581	42.21928	1238.91568	841.90649	69.62171	1245.35554	1174.88112	-475.66952	1188.07268	959.94962	-433.35939	1215.30806	973.65940	-492.05363	1274.26928	884.72487	-498.58085	1306.93728	759.69099	-481.69425	1276.13291	751.76732	-505.65137	1207.65615	807.50652	-126.69019	1200.53580	802.96844	-334.03109	1214.91059	819.61193	-162.75715	1222.45209	819.54371	-309.05081	
136	1.35000000	1349.90504	460.22597	-103.11697	1402.59004	410.80481	-109.51374	1414.60578	78.22404	-129.59888	1364.57797	50.34870	-177.46282	1527.91561	44.97996	-110.12487	1566.84566	78.67528	-161.02026	1081.47687	456.30399	-363.67035	1072.51174	365.60780	-347.93494	853.57150	136.88710	-362.98311	779.67446	128.07303	-328.77544	926.00321	43.31911	-374.85275	968.88057	43.09033	-313.13711	1411.22856	298.61843	-104.29518	1331.31593	405.04189	-79.50107	1330.92661	288.01452	-81.32288	1018.76497	418.84105	-397.04126	946.56339	320.41267	-409.94672	1308.16510	702.71102	-50.31858	1345.11415	596.87898	-69.45326	1292.77029	554.81005	-73.34807	1202.07766	664.49194	-65.14850	1252.36829	552.59132	-102.85984	1219.10438	700.51346	-413.93238	1178.77967	571.93130	-382.89164	1110.38549	729.10832	-422.46634	1068.98289	608.40939	-370.79264	1307.01965	890.05375	-127.56720	1097.34389	931.96585	-190.41282	1305.66722	878.92280	-349.41468	1101.58192	931.29111	-271.74526	1232.04820	1355.76677	-282.09613	1294.89933	1339.11846	-133.03290	1263.05463	1290.88737	-417.03516	1352.46267	1279.85909	-254.29037	1347.85080	1275.03987	-293.93924	1298.89008	1230.55235	-58.69410	1163.98908	1054.41587	-35.18841	1206.60397	1058.92785	16.00220	1258.75131	980.10772	29.97005	1279.25008	834.50555	41.30613	1253.56722	838.25033	68.73970	1255.44500	1179.05838	-472.68796	1196.32207	964.74867	-430.84516	1222.49824	978.45551	-490.10964	1279.50619	888.57344	-499.22445	1309.68811	762.51582	-484.84331	1278.16623	755.18824	-507.97065	1220.43364	808.61377	-125.49090	1213.24087	803.22785	-332.80561	1227.40133	820.99633	-161.37641	1235.03036	819.78498	-307.76166	
137	1.36000000	1361.65584	461.88029	-101.54505	1413.93387	411.01349	-108.36726	1416.50495	77.96625	-129.34501	1365.59638	51.29489	-177.16392	1529.44945	42.70782	-110.41067	1569.12545	74.60257	-161.82289	1098.73905	454.57110	-364.05121	1087.56683	363.97262	-349.42231	860.91227	141.96130	-363.88054	787.02168	137.42142	-329.24089	927.96336	43.89467	-375.02893	971.07381	42.23541	-313.49109	1419.81135	298.69350	-103.33046	1342.83090	406.93593	-77.82774	1339.63608	289.91844	-79.64943	1035.06004	419.00998	-397.31452	959.14258	323.37271	-410.03111	1319.90160	704.22820	-47.98892	1356.74957	598.30497	-67.13885	1304.23070	556.51421	-72.01858	1213.80528	666.41842	-64.25765	1264.05659	553.87745	-101.06561	1233.33624	700.87599	-412.66124	1194.65570	571.26156	-382.62066	1123.79026	728.12154	-420.83171	1084.46498	606.38939	-369.83321	1319.49396	891.86893	-126.58812	1109.79445	933.13531	-189.81333	1317.97021	879.68874	-348.48856	1114.11528	931.81744	-271.19187	1243.85346	1357.85869	-276.85237	1307.18209	1338.89145	-128.15805	1274.91444	1294.98475	-412.83785	1364.23191	1281.42171	-250.27627	1359.55896	1277.37053	-289.92648	1312.05689	1228.95997	-55.96016	1178.11752	1052.02278	-33.95202	1220.97743	1056.07585	17.04163	1273.35027	977.31982	30.07337	1294.20386	831.58560	40.06689	1268.58023	835.01815	67.61725	1265.88653	1183.67841	-469.69719	1204.61302	970.12031	-428.38228	1229.88087	983.77682	-488.15484	1284.82606	892.96694	-499.77819	1312.56434	766.05367	-487.85635	1280.31832	759.41450	-510.12947	1233.06255	810.29682	-124.20729	1225.90900	803.80934	-331.48583	1239.80104	822.80074	-159.95335	1247.57746	820.43130	-306.39389	
138	1.37000000	1373.07830	463.48936	-99.99223	1424.57577	411.16444	-107.20729	1417.89241	77.91634	-129.10342	1366.30548	52.03121	-176.81398	1530.54132	41.14985	-110.53005	1570.85084	71.40464	-162.41918	1117.29276	452.53170	-364.73744	1103.45692	361.91567	-351.33033	869.44890	147.61437	-364.66476	795.87872	147.85993	-329.67209	930.29146	44.96281	-375.18676	973.51891	41.61674	-313.79350	1427.71220	298.77564	-102.32361	1353.71307	408.78882	-76.11062	1347.69848	291.85330	-77.89561	1052.69110	419.06743	-397.90065	972.97564	326.49066	-410.23371	1331.86843	706.09033	-45.93116	1368.55113	600.07089	-65.06558	1315.90339	558.49066	-70.51326	1225.76521	668.60357	-62.91451	1275.76700	555.64939	-99.16436	1247.77051	701.22525	-411.45408	1211.30123	570.51535	-382.58795	1137.51321	726.89588	-419.23577	1100.63676	603.99166	-369.18725	1331.86779	894.22484	-125.57258	1122.08010	934.61942	-189.41133	1330.05826	880.72759	-347.46542	1126.52227	932.70552	-270.80219	1255.48249	1360.13133	-271.68785	1319.20982	1339.06302	-123.38544	1286.84036	1299.38732	-408.56593	1375.91669	1283.35877	-246.21870	1371.19193	1279.99955	-285.82214	1325.08508	1227.87312	-53.26708	1192.21361	1050.08760	-32.78266	1235.46000	1053.63675	17.97198	1288.10367	975.02327	29.92316	1309.53031	829.24120	38.50544	1283.95673	832.24980	66.24372	1276.61849	1188.70310	-466.71223	1213.02734	975.94501	-425.98020	1237.50383	989.55912	-486.21573	1290.31456	897.87953	-500.23599	1315.65250	770.25617	-490.71811	1282.68086	764.48396	-512.19863	1245.52323	812.49188	-122.86109	1238.49592	804.65584	-330.09057	1252.09561	824.88621	-158.54378	1260.08923	821.44229	-305.00797	
